<?xml version="1.0" encoding="UTF-8"?>
<svg xmlns="http://www.w3.org/2000/svg" xmlns:xlink="http://www.w3.org/1999/xlink" width="22pt" height="22pt" viewBox="0 0 22 22" version="1.1">
<g id="surface1">
<path style=" stroke:none;fill-rule:nonzero;fill:rgb(0%,0%,0%);fill-opacity:1;" d="M 14.582031 11.113281 L 22 15.800781 L 22 6.226562 Z M 14.582031 11.113281 "/>
<path style=" stroke:none;fill-rule:nonzero;fill:rgb(0%,0%,0%);fill-opacity:1;" d="M 0 6.226562 L 0 15.800781 L 7.417969 11.113281 Z M 0 6.226562 "/>
<path style=" stroke:none;fill-rule:nonzero;fill:rgb(0%,0%,0%);fill-opacity:1;" d="M 20.625 3.4375 L 1.375 3.4375 C 0.6875 3.4375 0.144531 3.949219 0.0429688 4.609375 L 11 11.828125 L 21.957031 4.609375 C 21.855469 3.949219 21.3125 3.4375 20.625 3.4375 Z M 20.625 3.4375 "/>
<path style=" stroke:none;fill-rule:nonzero;fill:rgb(0%,0%,0%);fill-opacity:1;" d="M 13.324219 11.941406 L 11.378906 13.226562 C 11.261719 13.300781 11.132812 13.335938 11 13.335938 C 10.867188 13.335938 10.738281 13.300781 10.621094 13.226562 L 8.675781 11.941406 L 0.0429688 17.402344 C 0.148438 18.054688 0.691406 18.5625 1.375 18.5625 L 20.625 18.5625 C 21.308594 18.5625 21.851562 18.054688 21.957031 17.402344 Z M 13.324219 11.941406 "/>
</g>
</svg>
