<?xml version="1.0" encoding="UTF-8"?>
<svg xmlns="http://www.w3.org/2000/svg" xmlns:xlink="http://www.w3.org/1999/xlink" width="22pt" height="22pt" viewBox="0 0 22 22" version="1.1">
<g id="surface1">
<path style=" stroke:none;fill-rule:nonzero;fill:rgb(0%,0%,0%);fill-opacity:1;" d="M 11 0.457031 C 4.921875 0.457031 0 5.296875 0 11.269531 C 0 16.042969 3.152344 20.09375 7.519531 21.523438 C 8.070312 21.625 8.273438 21.289062 8.273438 21.003906 C 8.273438 20.746094 8.265625 20.066406 8.257812 19.164062 C 5.199219 19.816406 4.554688 17.714844 4.554688 17.714844 C 4.054688 16.46875 3.332031 16.132812 3.332031 16.132812 C 2.332031 15.464844 3.40625 15.476562 3.40625 15.476562 C 4.511719 15.554688 5.09375 16.589844 5.09375 16.589844 C 6.074219 18.246094 7.667969 17.765625 8.296875 17.492188 C 8.394531 16.792969 8.679688 16.316406 8.992188 16.046875 C 6.550781 15.773438 3.980469 14.84375 3.980469 10.703125 C 3.980469 9.523438 4.410156 8.558594 5.113281 7.804688 C 4.992188 7.53125 4.617188 6.429688 5.210938 4.941406 C 5.210938 4.941406 6.132812 4.652344 8.234375 6.050781 C 9.117188 5.8125 10.050781 5.691406 10.984375 5.6875 C 11.921875 5.691406 12.855469 5.8125 13.734375 6.050781 C 15.824219 4.652344 16.746094 4.941406 16.746094 4.941406 C 17.335938 6.429688 16.964844 7.53125 16.855469 7.804688 C 17.558594 8.558594 17.984375 9.523438 17.984375 10.703125 C 17.984375 14.855469 15.414062 15.769531 12.964844 16.035156 C 13.351562 16.359375 13.707031 17.023438 13.707031 18.035156 C 13.707031 19.484375 13.695312 20.644531 13.695312 20.996094 C 13.695312 21.28125 13.886719 21.617188 14.449219 21.507812 C 18.851562 20.089844 22 16.035156 22 11.269531 C 22 5.296875 17.074219 0.457031 11 0.457031 Z M 11 0.457031 "/>
</g>
</svg>
