<?xml version="1.0" encoding="UTF-8"?>
<svg xmlns="http://www.w3.org/2000/svg" xmlns:xlink="http://www.w3.org/1999/xlink" width="22pt" height="24pt" viewBox="0 0 22 24" version="1.1">
<g id="surface1">
<path style=" stroke:none;fill-rule:nonzero;fill:rgb(0%,0%,0%);fill-opacity:1;" d="M 19.882812 1.496094 L 1.527344 1.496094 C 0.683594 1.496094 0 2.175781 0 3.003906 L 0 20.910156 C 0 21.742188 0.683594 22.421875 1.527344 22.421875 L 19.882812 22.421875 C 20.726562 22.421875 21.417969 21.742188 21.417969 20.910156 L 21.417969 3.003906 C 21.417969 2.175781 20.726562 1.496094 19.882812 1.496094 Z M 6.472656 19.429688 L 3.300781 19.429688 L 3.300781 9.445312 L 6.476562 9.445312 L 6.476562 19.429688 Z M 4.886719 8.078125 C 3.867188 8.078125 3.046875 7.273438 3.046875 6.28125 C 3.046875 5.292969 3.867188 4.480469 4.886719 4.480469 C 5.898438 4.480469 6.726562 5.292969 6.726562 6.28125 C 6.726562 7.277344 5.902344 8.078125 4.886719 8.078125 Z M 18.371094 19.429688 L 15.195312 19.429688 L 15.195312 14.574219 C 15.195312 13.414062 15.171875 11.925781 13.546875 11.925781 C 11.894531 11.925781 11.640625 13.1875 11.640625 14.488281 L 11.640625 19.429688 L 8.464844 19.429688 L 8.464844 9.445312 L 11.511719 9.445312 L 11.511719 10.808594 L 11.550781 10.808594 C 11.980469 10.023438 13.015625 9.195312 14.558594 9.195312 C 17.773438 9.195312 18.371094 11.265625 18.371094 13.957031 Z M 18.371094 19.429688 "/>
</g>
</svg>
